<svg viewBox="0 0 18 18" fill="none" xmlns="http://www.w3.org/2000/svg">
<path d="M12.9583 9.83329C13.5833 9.83329 14.1333 9.49163 14.4167 8.97496L17.4 3.56663C17.7083 3.01663 17.3083 2.33329 16.675 2.33329H4.34168L3.55834 0.666626H0.833344V2.33329H2.50001L5.50001 8.65829L4.37501 10.6916C3.76668 11.8083 4.56668 13.1666 5.83334 13.1666H15.8333V11.5H5.83334L6.75001 9.83329H12.9583ZM5.13334 3.99996H15.2583L12.9583 8.16663H7.10834L5.13334 3.99996ZM5.83334 14C4.91668 14 4.17501 14.75 4.17501 15.6666C4.17501 16.5833 4.91668 17.3333 5.83334 17.3333C6.75001 17.3333 7.50001 16.5833 7.50001 15.6666C7.50001 14.75 6.75001 14 5.83334 14ZM14.1667 14C13.25 14 12.5083 14.75 12.5083 15.6666C12.5083 16.5833 13.25 17.3333 14.1667 17.3333C15.0833 17.3333 15.8333 16.5833 15.8333 15.6666C15.8333 14.75 15.0833 14 14.1667 14Z" fill="currentColor"/>
</svg>
