<svg viewBox="0 0 28 28" fill="none" xmlns="http://www.w3.org/2000/svg">
<path d="M13.9926 27.3366C10.3502 27.3366 9.92077 27.3174 8.49934 27.2553C7.39088 27.2189 6.29676 26.9938 5.2641 26.5898C3.47741 25.8953 2.06461 24.4837 1.36997 22.6989C0.98101 21.6637 0.771217 20.57 0.749573 19.4646C0.666656 18.0478 0.666656 17.5834 0.666656 13.9735C0.666656 10.3251 0.685905 9.89918 0.749573 8.48685C0.771691 7.38289 0.981476 6.29072 1.36997 5.25697C2.06385 3.46979 3.47895 2.05693 5.26854 1.36456C6.303 0.974438 7.39676 0.764351 8.5023 0.743434C9.91633 0.663574 10.3813 0.663574 13.9926 0.663574C17.6646 0.663574 18.0866 0.6828 19.4858 0.743434C20.5942 0.764532 21.6909 0.974597 22.7285 1.36456C24.5176 2.05772 25.9324 3.4703 26.627 5.25697C27.0226 6.30579 27.2335 7.41503 27.2504 8.53565C27.3333 9.95242 27.3333 10.4153 27.3333 14.0238C27.3333 17.6322 27.3126 18.1055 27.2504 19.506C27.2284 20.6125 27.0181 21.7072 26.6285 22.7432C25.9321 24.5293 24.5172 25.9414 22.7285 26.6357C21.6924 27.0234 20.598 27.2329 19.4918 27.2553C18.0777 27.3366 17.6143 27.3366 13.9926 27.3366ZM13.9422 3.00464C10.3206 3.00464 9.94447 3.02239 8.53044 3.08598C7.68644 3.09715 6.8506 3.25271 6.05922 3.54591C4.89061 3.99255 3.9659 4.91238 3.51396 6.07775C3.21815 6.87679 3.06237 7.72076 3.05348 8.57262C2.975 10.0057 2.975 10.3813 2.975 13.9735C2.975 17.5228 2.98833 17.9532 3.05348 19.3773C3.06673 20.2206 3.22242 21.0555 3.51396 21.847C3.96657 23.0116 4.89112 23.9308 6.05922 24.3774C6.85006 24.6726 7.68624 24.8282 8.53044 24.8373C9.96371 24.9202 10.3413 24.9202 13.9422 24.9202C17.5743 24.9202 17.9504 24.9024 19.3526 24.8373C20.1971 24.8271 21.0336 24.6715 21.8253 24.3774C22.9868 23.9269 23.9055 23.0099 24.3572 21.85C24.6524 21.0503 24.8082 20.2059 24.8177 19.3537H24.834C24.8976 17.9398 24.8976 17.5627 24.8976 13.9498C24.8976 10.3369 24.8813 9.95685 24.8177 8.54452C24.8044 7.70223 24.6487 6.86823 24.3572 6.07775C23.9065 4.9162 22.9877 3.9974 21.8253 3.54591C21.0338 3.25123 20.1972 3.09562 19.3526 3.08598C17.9208 3.00464 17.5462 3.00464 13.9422 3.00464ZM13.9926 20.8044C11.2237 20.8062 8.7265 19.1418 7.66553 16.5873C6.60455 14.0329 7.18882 11.0916 9.14584 9.13528C11.1029 7.17891 14.0472 6.5928 16.6056 7.65029C19.164 8.70778 20.8326 11.2006 20.8332 13.9661C20.8292 17.7388 17.7698 20.7971 13.9926 20.8044ZM13.9926 9.5265C11.5394 9.5265 9.55061 11.5129 9.55061 13.9631C9.55061 16.4134 11.5394 18.3998 13.9926 18.3998C16.4458 18.3998 18.4346 16.4134 18.4346 13.9631C18.4289 11.5152 16.4435 9.53219 13.9926 9.5265ZM21.0997 8.47206C20.2194 8.46879 19.5079 7.75419 19.5095 6.87488C19.5112 5.99557 20.2253 5.2836 21.1057 5.2836C21.986 5.2836 22.7002 5.99556 22.7018 6.87487C22.7022 7.2991 22.5335 7.70603 22.2328 8.00573C21.9322 8.30544 21.5245 8.47324 21.0997 8.47206Z" fill="currentColor"/>
</svg>
